<svg xmlns:xlink="http://www.w3.org/1999/xlink">

    <symbol viewBox="0 0 25.656 22.003" id="arrow-back" xmlns="http://www.w3.org/2000/svg">
        <defs>
            <g id="arr-back">
                <g transform="translate(0 -31.842)">
                    <g transform="translate(0 31.842)">
                        <path class="a"
                              d="M24.114,41.042a1.833,1.833,0,0,0-.318-.024H5.7l.395-.184A3.671,3.671,0,0,0,7.128,40.1L12.2,35.025a1.9,1.9,0,0,0,.266-2.432,1.836,1.836,0,0,0-2.754-.239L.538,41.533a1.836,1.836,0,0,0,0,2.6h0l9.178,9.178a1.836,1.836,0,0,0,2.754-.184,1.9,1.9,0,0,0-.266-2.432L7.137,45.608a3.672,3.672,0,0,0-.918-.67l-.551-.248H23.7a1.9,1.9,0,0,0,1.937-1.542A1.836,1.836,0,0,0,24.114,41.042Z"
                              transform="translate(0 -31.842)"/>
                    </g>
                </g>
            </g>
        </defs>
        <use xlink:href="#arr-back" transform="translate(0 0 25.656 22.003)"/>
    </symbol>

</svg>
